<svg xmlns="http://www.w3.org/2000/svg" width="1200" height="460" viewBox="0 0 1200 460" role="img" aria-labelledby="title desc"><title id="title">Ce qu&#x27;il faut pour reproduire</title><desc id="desc">Le code seul ne décrit pas tout l&#x27;état d&#x27;exécution. Runtime: Version et dépendances; Configuration: Paramètres documentés; Services: Démarrage et disponibilité; Données: Schéma, seed et état initial. Une procédure importante doit être rejouable depuis le README.</desc>
<rect width="1200" height="460" rx="14" fill="#F7F8FA"/><g font-family="Arial, sans-serif">
<text x="32" y="44" font-size="24" fill="#4B5563" font-weight="400"><tspan x="32" dy="0">Le code seul ne décrit pas tout l&#x27;état d&#x27;exécution.</tspan></text>
<rect x="32" y="106" width="552" height="116" rx="12" fill="white" stroke="#23468C" stroke-width="2"/>
<rect x="50" y="124" width="5" height="80" rx="2" fill="#D9CF4A"/>
<text x="69" y="143" font-size="25" fill="#23468C" font-weight="700"><tspan x="69" dy="0">Runtime</tspan></text>
<text x="69" y="175" font-size="21" fill="#0D0D0D" font-weight="400"><tspan x="69" dy="0">Version et dépendances</tspan></text>
<rect x="614" y="106" width="552" height="116" rx="12" fill="white" stroke="#23468C" stroke-width="2"/>
<rect x="632" y="124" width="5" height="80" rx="2" fill="#D9CF4A"/>
<text x="651" y="143" font-size="25" fill="#23468C" font-weight="700"><tspan x="651" dy="0">Configuration</tspan></text>
<text x="651" y="175" font-size="21" fill="#0D0D0D" font-weight="400"><tspan x="651" dy="0">Paramètres documentés</tspan></text>
<rect x="32" y="239" width="552" height="116" rx="12" fill="white" stroke="#23468C" stroke-width="2"/>
<rect x="50" y="257" width="5" height="80" rx="2" fill="#D9CF4A"/>
<text x="69" y="276" font-size="25" fill="#23468C" font-weight="700"><tspan x="69" dy="0">Services</tspan></text>
<text x="69" y="308" font-size="21" fill="#0D0D0D" font-weight="400"><tspan x="69" dy="0">Démarrage et disponibilité</tspan></text>
<rect x="614" y="239" width="552" height="116" rx="12" fill="white" stroke="#23468C" stroke-width="2"/>
<rect x="632" y="257" width="5" height="80" rx="2" fill="#D9CF4A"/>
<text x="651" y="276" font-size="25" fill="#23468C" font-weight="700"><tspan x="651" dy="0">Données</tspan></text>
<text x="651" y="308" font-size="21" fill="#0D0D0D" font-weight="400"><tspan x="651" dy="0">Schéma, seed et état initial</tspan></text>
<path d="M32 391 H1168" stroke="#D9CF4A" stroke-width="4"/>
<text x="32" y="423" font-size="21" fill="#0D0D0D" font-weight="400"><tspan x="32" dy="0">Une procédure importante doit être rejouable depuis le README.</tspan></text>
</g></svg>